<?xml version="1.0" encoding="UTF-8"?><svg id="Ebene_1" xmlns="http://www.w3.org/2000/svg" viewBox="0 0 512 74.63"><defs><style>.cls-1{fill:#5a29e4;}</style></defs><path class="cls-1" d="M254.11,9.18v60.17l-6.56,5.28V24.58h-12.34l18.9-15.4ZM481.54,0c5.49,0,10.59,.83,15.3,2.48,4.53,1.56,8.43,3.32,11.72,5.28l.57,.35-6.8,12.94c-.62-.51-1.5-1.09-2.63-1.74l-.64-.36h0l-.69-.38h0l-.74-.39c-2.09-1.13-4.58-2.09-7.45-2.88-2.88-.87-5.84-1.31-8.89-1.31-8.19,0-12.29,2.31-12.29,6.93,0,2.7,1.48,4.62,4.45,5.75l.68,.24h0l.72,.25h0l.76,.25h0l.8,.26h0l.85,.26h0l.89,.26c.15,.04,.31,.09,.46,.13l.95,.27h0l1,.27h0l1.04,.28h0l1.08,.28h0l1.12,.29h0l1.76,.44h0l1.23,.3h0c5.14,1.31,9.59,2.79,13.34,4.45,3.68,1.59,6.51,3.69,8.5,6.32l.26,.35c2.09,2.7,3.14,6.28,3.14,10.72,0,5.4-1.39,9.76-4.18,13.07-2.7,3.22-6.28,5.58-10.72,7.06-4.45,1.39-9.24,2.09-14.38,2.09-5.93,0-11.81-.83-17.65-2.48-5.56-1.58-10.53-3.71-14.91-6.39l-.65-.41,7.06-13.73c1.13,1.13,3.01,2.4,5.62,3.79,2.7,1.39,5.84,2.57,9.41,3.53,3.57,.96,7.37,1.44,11.37,1.44,8.02,0,12.03-2.14,12.03-6.41,0-2.88-1.87-4.92-5.62-6.14l-.9-.32h0l-.95-.32h0l-.99-.33h0l-1.04-.33h0l-1.08-.34h0l-1.13-.34c-.19-.06-.39-.11-.58-.17l-1.19-.35h0l-1.24-.35h0l-1.29-.36h0l-1.33-.36h0l-2.08-.56h0l-.72-.19c-7.5-1.92-13.07-4.36-16.73-7.32-3.57-3.05-5.36-7.41-5.36-13.07,0-5.06,1.26-9.28,3.79-12.68,2.61-3.4,6.1-5.97,10.46-7.71,4.45-1.74,9.28-2.61,14.51-2.61Zm-121.25,.13c5.53,0,10.58,1.01,15.15,3.02l.55,.25c4.71,2.09,8.72,4.92,12.03,8.5,3.4,3.49,6.01,7.45,7.84,11.9,1.83,4.45,2.75,8.98,2.75,13.6s-.96,9.41-2.88,13.86c-1.92,4.36-4.62,8.28-8.11,11.77-3.4,3.4-7.45,6.1-12.16,8.11-4.71,2-9.85,3.01-15.43,3.01s-10.98-1-15.69-3.01c-4.71-2.09-8.76-4.88-12.16-8.37-3.4-3.57-6.01-7.58-7.84-12.03-1.83-4.45-2.75-9.02-2.75-13.73s.96-9.41,2.88-13.86c1.83-4.24,4.38-8.01,7.64-11.3l.47-.47c3.49-3.49,7.58-6.23,12.29-8.24,4.71-2,9.85-3.01,15.43-3.01ZM44.84,.52l31.77,73.08h-16.73l-7.32-17.13H24.19l-7.32,17.13H0L31.9,.52h12.94Zm93.58,0l20.13,25.89L178.69,.52h17.13l-28.89,37,27.98,36.08h-17.13l-19.22-24.84-19.09,24.84h-17.39l28.11-36.08L121.17,.52h17.26Zm127.68-.33V49.09h12.69l-19.23,15.78V4.74l6.54-4.56Zm93.93,14.06c-4.79,0-8.89,1.13-12.29,3.4-3.31,2.27-5.84,5.14-7.58,8.63-1.74,3.49-2.61,7.1-2.61,10.85s.92,7.67,2.75,11.24c1.83,3.49,4.4,6.32,7.71,8.5,3.4,2.18,7.45,3.27,12.16,3.27s8.85-1.13,12.16-3.4c3.31-2.35,5.84-5.27,7.58-8.76,1.74-3.57,2.62-7.23,2.62-10.98s-.92-7.63-2.75-11.11c-1.83-3.49-4.45-6.28-7.85-8.37-3.31-2.18-7.28-3.27-11.89-3.27ZM38.44,19.74l-10.72,23.01h21.05l-10.33-23.01Z"/></svg>